<svg xmlns="http://www.w3.org/2000/svg" width="74.256" height="68.509" viewBox="0 0 74.256 68.509">
  <g id="fee" transform="translate(0 -10)">
    <path id="Path_377" data-name="Path 377" d="M166.716,26.8h-2.467a.681.681,0,0,1-.668-.523,14.012,14.012,0,0,0-1.393-3.338.66.66,0,0,1,.116-.813l1.742-1.742a.719.719,0,0,0,0-.987l-3.6-3.629a.719.719,0,0,0-.987,0l-1.742,1.742a.66.66,0,0,1-.813.116,14.012,14.012,0,0,0-3.338-1.393.743.743,0,0,1-.523-.668V13.1a.706.706,0,0,0-.7-.7h-5.08a.706.706,0,0,0-.7.7v2.467a.681.681,0,0,1-.523.668,14.012,14.012,0,0,0-3.338,1.393.66.66,0,0,1-.813-.116l-1.742-1.742a.719.719,0,0,0-.987,0l-3.6,3.6a.719.719,0,0,0,0,.987l1.742,1.742a.66.66,0,0,1,.116.813,14.011,14.011,0,0,0-1.393,3.338.743.743,0,0,1-.668.523H132.9a.706.706,0,0,0-.7.7v5.08c0,.377.319.581.7.581h2.467a.773.773,0,0,1,.668.61,14.012,14.012,0,0,0,1.393,3.338.66.66,0,0,1-.116.813l-1.742,1.742a.719.719,0,0,0,0,.987l3.6,3.6a.719.719,0,0,0,.987,0l1.742-1.742a.66.66,0,0,1,.813-.116,14.012,14.012,0,0,0,3.338,1.393.743.743,0,0,1,.523.668v2.467a.706.706,0,0,0,.7.7h5.08a.706.706,0,0,0,.7-.7V44.419a.681.681,0,0,1,.523-.668,14.012,14.012,0,0,0,3.338-1.393.66.66,0,0,1,.813.116l1.742,1.742a.719.719,0,0,0,.987,0l3.6-3.6a.719.719,0,0,0,0-.987L162.3,37.888a.66.66,0,0,1-.116-.813,14.012,14.012,0,0,0,1.393-3.338.8.8,0,0,1,.668-.61h2.467c.377,0,.7-.2.7-.581v-5.08A.682.682,0,0,0,166.716,26.8Z" transform="translate(-93.824 -1.703)" fill="#fcdd86"/>
    <circle id="Ellipse_19" data-name="Ellipse 19" cx="9.493" cy="9.493" r="9.493" transform="translate(46.505 18.825)" fill="#f5c84c"/>
    <path id="Path_378" data-name="Path 378" d="M177.674,67.816l-2.845-2.845a1.6,1.6,0,0,1,2.264-2.264l1.713,1.713,3.629-3.629a1.6,1.6,0,0,1,2.264,2.264l-4.761,4.761A1.63,1.63,0,0,1,177.674,67.816Z" transform="translate(-123.738 -35.725)" fill="#edf4fc"/>
    <path id="Path_379" data-name="Path 379" d="M45.376,79.431a14.012,14.012,0,0,1-1.393-3.338.8.8,0,0,0-.668-.61H40.847c-.377,0-.7-.2-.7-.581V72H4.271A1.778,1.778,0,0,0,2.5,73.771v31.468a1.778,1.778,0,0,0,1.771,1.771h5.893V81.434a1.778,1.778,0,0,1,1.771-1.771H45.463A2,2,0,0,0,45.376,79.431Z" transform="translate(-1.774 -44.002)" fill="#87d147"/>
    <path id="Path_380" data-name="Path 380" d="M53.822,87.948a14.012,14.012,0,0,1-1.393-3.338A.8.8,0,0,0,51.76,84h-30.1a.714.714,0,0,0-.7.523,9,9,0,0,1-6.038,6.038.714.714,0,0,0-.523.7v13.557a.714.714,0,0,0,.523.7,8.835,8.835,0,0,1,3.687,2.177V89.951A1.778,1.778,0,0,1,20.38,88.18H53.909A2,2,0,0,0,53.822,87.948Z" transform="translate(-10.22 -52.518)" fill="#b2e26d"/>
    <path id="Path_381" data-name="Path 381" d="M8.389,105.861H2.5a2.5,2.5,0,0,1-2.5-2.5V71.9a2.5,2.5,0,0,1,2.5-2.5h35.88a.719.719,0,0,1,.726.726v2.729h2.438a1.545,1.545,0,0,1,1.393,1.161A13.721,13.721,0,0,0,44.24,77.18a1.429,1.429,0,0,1,.174.493.722.722,0,0,1-.61.813H10.16a1.041,1.041,0,0,0-1.045,1.045v25.575A.726.726,0,0,1,8.389,105.861ZM2.5,70.88a1.041,1.041,0,0,0-1.045,1.045v31.468A1.041,1.041,0,0,0,2.5,104.438H7.664V79.589a2.5,2.5,0,0,1,2.5-2.5H42.528a16.364,16.364,0,0,1-1.016-2.671c0-.029-.029-.058-.058-.087h-2.38a1.331,1.331,0,0,1-1.422-1.306V70.88Z" transform="translate(0 -42.157)"/>
    <path id="Path_382" data-name="Path 382" d="M169.758,232.022h-.61v-.61a.813.813,0,0,0-1.626,0v.61h-.61a.813.813,0,0,0,0,1.626h.61v.61a.813.813,0,0,0,1.626,0v-.61h.61a.813.813,0,0,0,0-1.626Z" transform="translate(-117.883 -156.562)" fill="#70d6f9"/>
    <path id="Path_383" data-name="Path 383" d="M109.232,35.035a2.849,2.849,0,0,1-2.293-2.235c0-.029-.029-.058-.058-.029a.028.028,0,0,0-.029.029,2.812,2.812,0,0,1-2.293,2.235.062.062,0,0,0-.058.058c0,.029.029.029.058.058a2.849,2.849,0,0,1,2.293,2.235c0,.029.029.058.058.029a.028.028,0,0,0,.029-.029,2.812,2.812,0,0,1,2.293-2.235.062.062,0,0,0,.058-.058C109.29,35.035,109.261,35.035,109.232,35.035Z" transform="translate(-74.165 -16.152)" fill="#f5c84c"/>
    <circle id="Ellipse_20" data-name="Ellipse 20" cx="0.871" cy="0.871" r="0.871" transform="translate(36.867 12.816)" fill="#fc657e"/>
    <circle id="Ellipse_21" data-name="Ellipse 21" cx="0.871" cy="0.871" r="0.871" transform="translate(11.031 22.395)" fill="#87d147"/>
    <circle id="Ellipse_22" data-name="Ellipse 22" cx="0.871" cy="0.871" r="0.871" transform="translate(42.383 73.196)" fill="#f5c84c"/>
    <path id="Path_384" data-name="Path 384" d="M16.835,106.539a.7.7,0,0,1-.493-.2,8.251,8.251,0,0,0-3.4-2A1.463,1.463,0,0,1,11.9,102.94V89.383a1.429,1.429,0,0,1,1.045-1.393,8.181,8.181,0,0,0,5.545-5.545A1.463,1.463,0,0,1,19.883,81.4h30.1a1.545,1.545,0,0,1,1.393,1.161,13.721,13.721,0,0,0,1.306,3.164,1.429,1.429,0,0,1,.174.493.722.722,0,0,1-.61.813H18.606a1.041,1.041,0,0,0-1.045,1.045v17.737A.719.719,0,0,1,16.835,106.539Zm-.726-18.492a10.543,10.543,0,0,1-2.758,1.335v13.586a9.7,9.7,0,0,1,2.758,1.335V88.048Zm3.774-5.2a9.7,9.7,0,0,1-1.335,2.758h32.4a16.363,16.363,0,0,1-1.016-2.671c0-.029-.029-.058-.058-.087Z" transform="translate(-8.446 -50.673)"/>
    <path id="Path_385" data-name="Path 385" d="M87.132,105.309a.719.719,0,0,1-.987,0L84.4,103.567a.66.66,0,0,0-.813-.116,14.012,14.012,0,0,1-3.338,1.393.743.743,0,0,0-.523.668v2.467a.706.706,0,0,1-.7.7h-5.08a.706.706,0,0,1-.7-.7v-2.467a.681.681,0,0,0-.523-.668,14.012,14.012,0,0,1-3.338-1.393.66.66,0,0,0-.813.116l-1.742,1.742a.719.719,0,0,1-.987,0l-3.6-3.6a.719.719,0,0,1,0-.987L64,98.981a.721.721,0,0,0,.2-.581H30.671a1.778,1.778,0,0,0-1.771,1.771v31.468a1.778,1.778,0,0,0,1.771,1.771H85.71a1.778,1.778,0,0,0,1.771-1.771V104.99Z" transform="translate(-20.511 -62.738)" fill="#87d147"/>
    <path id="Path_386" data-name="Path 386" d="M91.92,116.861a8.978,8.978,0,0,1-3.745-2.235v1.8a.706.706,0,0,1-.7.7H82.37a.706.706,0,0,1-.7-.7v-2.467a.681.681,0,0,0-.523-.668,14.011,14.011,0,0,1-3.338-1.393.66.66,0,0,0-.813.116l-1.742,1.742a.719.719,0,0,1-.987,0L70.816,110.3H48.057a.714.714,0,0,0-.7.523,9,9,0,0,1-6.038,6.038.714.714,0,0,0-.523.7v13.557a.714.714,0,0,0,.523.7,9,9,0,0,1,6.038,6.038.714.714,0,0,0,.7.523H85.186a.714.714,0,0,0,.7-.523,9,9,0,0,1,6.038-6.038.714.714,0,0,0,.523-.7V117.557A.714.714,0,0,0,91.92,116.861Z" transform="translate(-28.956 -71.184)" fill="#b2e26d"/>
    <circle id="Ellipse_23" data-name="Ellipse 23" cx="9.87" cy="9.87" r="9.87" transform="translate(27.81 43.267)" fill="#87d147"/>
    <path id="Path_387" data-name="Path 387" d="M120.912,151.36h-3.861a.726.726,0,0,1,0-1.451h3.861a1.451,1.451,0,1,0,0-2.9H118.5a2.9,2.9,0,1,1,0-5.806h3.425a.726.726,0,1,1,0,1.451H118.5a1.451,1.451,0,1,0,0,2.9h2.409a2.9,2.9,0,0,1,0,5.806Z" transform="translate(-82.042 -93.114)"/>
    <path id="Path_388" data-name="Path 388" d="M128.026,149.15a.719.719,0,0,1-.726-.726v-11.7a.726.726,0,1,1,1.451,0v11.7A.719.719,0,0,1,128.026,149.15Z" transform="translate(-90.346 -89.423)"/>
    <path id="Path_389" data-name="Path 389" d="M83.936,132.261H28.9a2.5,2.5,0,0,1-2.5-2.5V98.3a2.5,2.5,0,0,1,2.5-2.5H62.425a.745.745,0,0,1,.726.61,1.381,1.381,0,0,1-.406,1.19l-1.713,1.713,3.542,3.542,1.713-1.713A1.4,1.4,0,0,1,68,100.909a12.553,12.553,0,0,0,3.164,1.306,1.437,1.437,0,0,1,1.045,1.393v2.438H77.23v-2.438a1.463,1.463,0,0,1,1.045-1.393,13.721,13.721,0,0,0,3.164-1.306,1.411,1.411,0,0,1,1.713.232l1.713,1.713.29-.29a.712.712,0,0,1,1.219.523v26.649a2.437,2.437,0,0,1-2.438,2.526ZM28.9,97.28a1.041,1.041,0,0,0-1.045,1.045v31.468a1.041,1.041,0,0,0,1.045,1.045H83.936a1.041,1.041,0,0,0,1.045-1.045v-25.4a1.321,1.321,0,0,1-1.074-.406l-1.742-1.742a14.939,14.939,0,0,1-3.454,1.422v2.438a1.425,1.425,0,0,1-1.422,1.422h-5.08a1.425,1.425,0,0,1-1.422-1.422v-2.438a14.434,14.434,0,0,1-3.454-1.422l-1.742,1.742a1.419,1.419,0,0,1-2,0l-3.629-3.6a1.419,1.419,0,0,1,0-2l1.1-1.1Z" transform="translate(-18.736 -60.893)"/>
    <path id="Path_390" data-name="Path 390" d="M70.416,157.551h-2.09a.726.726,0,0,1,0-1.451h2.09a.719.719,0,0,1,.726.726A.737.737,0,0,1,70.416,157.551Z" transform="translate(-47.976 -103.688)"/>
    <path id="Path_391" data-name="Path 391" d="M182.616,157.551h-2.09a.726.726,0,1,1,0-1.451h2.09a.719.719,0,0,1,.726.726A.737.737,0,0,1,182.616,157.551Z" transform="translate(-127.606 -103.688)"/>
    <path id="Path_392" data-name="Path 392" d="M83.411,137.323H46.283a1.463,1.463,0,0,1-1.393-1.045,8.181,8.181,0,0,0-5.545-5.545A1.463,1.463,0,0,1,38.3,129.34V115.783a1.429,1.429,0,0,1,1.045-1.393,8.181,8.181,0,0,0,5.545-5.545,1.463,1.463,0,0,1,1.393-1.045H69.071a.835.835,0,0,1,.523.2l3.425,3.425,1.713-1.713a1.4,1.4,0,0,1,1.713-.232,12.553,12.553,0,0,0,3.164,1.306,1.437,1.437,0,0,1,1.045,1.393v2.438h5.022v-1.771a.719.719,0,0,1,.726-.726.835.835,0,0,1,.523.2,8.393,8.393,0,0,0,3.454,2.061,1.463,1.463,0,0,1,1.045,1.393V129.34a1.463,1.463,0,0,1-1.045,1.393,8.181,8.181,0,0,0-5.545,5.545,1.527,1.527,0,0,1-1.422,1.045ZM46.283,109.251a9.66,9.66,0,0,1-6.532,6.5V129.34a9.66,9.66,0,0,1,6.5,6.532H83.382a9.66,9.66,0,0,1,6.532-6.5V115.783a9.373,9.373,0,0,1-2.816-1.364v.232a1.425,1.425,0,0,1-1.422,1.422H80.6a1.425,1.425,0,0,1-1.422-1.422v-2.438a14.432,14.432,0,0,1-3.454-1.422l-1.742,1.742a1.419,1.419,0,0,1-2,0l-3.251-3.251Z" transform="translate(-27.182 -69.41)"/>
    <path id="Path_393" data-name="Path 393" d="M103.9,143.391a10.6,10.6,0,1,1,10.6-10.6A10.58,10.58,0,0,1,103.9,143.391Zm0-19.769a9.144,9.144,0,1,0,9.144,9.144A9.143,9.143,0,0,0,103.9,123.622Z" transform="translate(-66.216 -79.629)"/>
    <path id="Path_394" data-name="Path 394" d="M150.572,46.664h-5.08a1.425,1.425,0,0,1-1.422-1.422V42.8a14.432,14.432,0,0,1-3.454-1.422l-1.742,1.742a1.419,1.419,0,0,1-2,0l-3.6-3.629a1.419,1.419,0,0,1,0-2l1.742-1.742a15.245,15.245,0,0,1-1.451-3.483c0-.029-.029-.058-.058-.087h-2.38a1.331,1.331,0,0,1-1.422-1.306V25.763a1.425,1.425,0,0,1,1.422-1.422h2.438a14.433,14.433,0,0,1,1.422-3.454l-1.742-1.742a1.419,1.419,0,0,1,0-2l3.6-3.6a1.419,1.419,0,0,1,2,0l1.742,1.742a14.939,14.939,0,0,1,3.454-1.422V11.422A1.425,1.425,0,0,1,145.463,10h5.08a1.425,1.425,0,0,1,1.422,1.422v2.438a14.433,14.433,0,0,1,3.454,1.422l1.742-1.742a1.419,1.419,0,0,1,2,0l3.6,3.6a1.419,1.419,0,0,1,0,2l-1.742,1.742a14.939,14.939,0,0,1,1.422,3.454h2.438a1.425,1.425,0,0,1,1.422,1.422v5.08a1.331,1.331,0,0,1-1.422,1.306H162.5c-.029.029-.029.058-.058.087a14.05,14.05,0,0,1-1.451,3.483l1.742,1.742a1.419,1.419,0,0,1,0,2l-3.542,3.629a1.419,1.419,0,0,1-2,0l-1.742-1.742a14.94,14.94,0,0,1-3.454,1.422v2.438a1.431,1.431,0,0,1-1.422,1.451Zm-5.051-1.451h5.022V42.774a1.463,1.463,0,0,1,1.045-1.393,13.721,13.721,0,0,0,3.164-1.306,1.411,1.411,0,0,1,1.713.232l1.713,1.713,3.571-3.542-1.713-1.713a1.4,1.4,0,0,1-.232-1.713,12.553,12.553,0,0,0,1.306-3.164,1.551,1.551,0,0,1,1.393-1.161h2.438V25.821H162.5a1.463,1.463,0,0,1-1.393-1.045,13.72,13.72,0,0,0-1.306-3.164,1.411,1.411,0,0,1,.232-1.713l1.713-1.713-3.542-3.542-1.713,1.713a1.4,1.4,0,0,1-1.713.232,12.553,12.553,0,0,0-3.164-1.306,1.437,1.437,0,0,1-1.045-1.393V11.451H145.55V13.89a1.463,1.463,0,0,1-1.045,1.393,13.721,13.721,0,0,0-3.164,1.306,1.411,1.411,0,0,1-1.713-.232l-1.713-1.713-3.571,3.542,1.713,1.713a1.4,1.4,0,0,1,.232,1.713,12.553,12.553,0,0,0-1.306,3.164,1.437,1.437,0,0,1-1.393,1.045h-2.438v4.906h2.438a1.545,1.545,0,0,1,1.393,1.161,13.721,13.721,0,0,0,1.306,3.164,1.411,1.411,0,0,1-.232,1.713l-1.713,1.713,3.542,3.542,1.713-1.713a1.4,1.4,0,0,1,1.713-.232,12.553,12.553,0,0,0,3.164,1.306,1.437,1.437,0,0,1,1.045,1.393Z" transform="translate(-92.049)"/>
    <path id="Path_395" data-name="Path 395" d="M167.918,58.336a10.218,10.218,0,1,1,10.218-10.218A10.215,10.215,0,0,1,167.918,58.336Zm0-18.985a8.767,8.767,0,1,0,8.738,8.767A8.759,8.759,0,0,0,167.918,39.351Z" transform="translate(-111.921 -19.801)"/>
    <path id="Path_396" data-name="Path 396" d="M176.987,67.267a2.351,2.351,0,0,1-1.655-.668l-2.845-2.845a2.32,2.32,0,1,1,3.251-3.309l.029.029,1.219,1.219,3.106-3.106a2.3,2.3,0,0,1,3.28-.029,2.331,2.331,0,0,1,.029,3.28l-.029.029-4.761,4.761A2.281,2.281,0,0,1,176.987,67.267Zm-.61-1.713a.836.836,0,0,0,.61.261.791.791,0,0,0,.61-.261l4.761-4.761a.876.876,0,0,0,0-1.248.933.933,0,0,0-1.248,0l-3.629,3.629a.7.7,0,0,1-1.016,0l-1.713-1.713a.933.933,0,0,0-1.248,0,.876.876,0,0,0,0,1.248Z" transform="translate(-121.919 -33.986)"/>
  </g>
</svg>
