<svg height="512" viewBox="0 0 64 64" width="512" xmlns="http://www.w3.org/2000/svg"><g id="Fill_Outline" data-name="Fill Outline"><path d="m5 28h36v21h-36z" fill="#80e1b8"/><path d="m15.507 28h-10.507v21h36v-7h-5a22 22 0 0 1 -20.493-14z" fill="#3aba80"/><path d="m19 43v-10l10 5z" fill="#ffc569"/><path d="m5 20h36v8h-36z" fill="#68cbf2"/><path d="m14 20h-9v8h10.507a21.934 21.934 0 0 1 -1.507-8z" fill="#34b2e4"/><path d="m12 20 8 8h7l-8-8z" fill="#2070a1"/><path d="m5 28h8l-8-8z" fill="#2070a1"/><path d="m26 20 8 8h7l-8-8z" fill="#2070a1"/><path d="m3.422 7.522h36v8h-36z" fill="#68cbf2" transform="matrix(.966 -.259 .259 .966 -2.252 5.937)"/><path d="m14.866 14.492a6 6 0 0 1 -7.072-3.459l-4.794 1.284 2.071 7.728 34.773-9.318-.732-2.727z" fill="#34b2e4"/><path d="m11.832 18.233 5.657-9.798 6.761-1.812-5.656 9.798z" fill="#2070a1"/><path d="m3 12.317 7.727-2.07-5.656 9.798z" fill="#2070a1"/><path d="m25.355 14.61 5.657-9.798 6.761-1.812-5.657 9.798z" fill="#2070a1"/><path d="m19 33.964v9.036l6.907-3.454a22.084 22.084 0 0 1 -6.907-5.582z" fill="#f06e7a"/><path d="m53 34a3 3 0 0 0 -3-3h-6a3 3 0 0 0 -3 3 3 3 0 0 1 -3 3h-2a3 3 0 0 0 -3 3v14a3 3 0 0 0 3 3h22a3 3 0 0 0 3-3v-14a3 3 0 0 0 -3-3h-2a3 3 0 0 1 -3-3z" fill="#f06e7a"/><circle cx="46" cy="48" fill="#a7325c" r="7"/><circle cx="47" cy="47" fill="#68cbf2" r="6"/><circle cx="47" cy="47" fill="#34b2e4" r="3"/><path d="m42 57h10v4h-10z" fill="#2070a1"/><rect fill="#92e5eb" height="8" rx="2" width="10" x="46" y="13"/><path d="m56 19 4 1v-6l-4 1z" fill="#92e5eb"/><path d="m42 59h6a2 2 0 0 1 2 2 0 0 0 0 1 0 0h-8a0 0 0 0 1 0 0v-2a0 0 0 0 1 0 0z" fill="#34b2e4"/><circle cx="48" cy="46" fill="#92e5eb" r="1"/><path d="m38 44v-7h-2a3 3 0 0 0 -3 3v14a3 3 0 0 0 3 3h22a3 3 0 0 0 3-3h-13a10 10 0 0 1 -10-10z" fill="#a7325c"/><path d="m48 13a2 2 0 0 0 -2 2v4a2 2 0 0 0 2 2h6a2 2 0 0 0 2-2h-2a6 6 0 0 1 -6-6z" fill="#68cbf2"/><path d="m58.515 18.379a2 2 0 0 1 -1.515-1.941v-1.688l-1 .25v4l4 1v-1.25z" fill="#68cbf2"/><path d="m58 37h-2a3 3 0 0 1 -3-3 3 3 0 0 0 -3-3h-6a3 3 0 0 0 3 3h2a2 2 0 0 1 2 2 4 4 0 0 0 4 4h6a3 3 0 0 0 -3-3z" fill="#ffc569"/><g fill="#2f2f31"><path d="m29 48h-23v-19h35a1 1 0 0 0 1-1v-8a1 1 0 0 0 -1-1h-28.167l27.267-7.307a1 1 0 0 0 .707-1.224l-2.068-7.728a1 1 0 0 0 -1.224-.707l-34.774 9.318a1 1 0 0 0 -.707 1.224s1.966 7.407 1.966 7.424a1 1 0 0 0 .293.707l6.293 6.293h-4.586v-1a1 1 0 0 0 -2 0v23a1 1 0 0 0 1 1h24a1 1 0 0 0 0-2zm2.586-21h-4.172l-6-6h4.172zm-3.172-6h4.172l6 6h-4.172zm-3.828 6h-4.172l-6-6h4.172zm15.414-1.414-4.586-4.586h4.586zm-15.3-11.835-4.029 1.08 4.239-7.349 4.028-1.082zm6.971-8.081 4.029-1.079-4.243 7.348-4.029 1.08zm-13.736 9.893-4.03 1.08 4.243-7.349 4.029-1.08zm-6.762 1.812-4.029 1.079 4.243-7.349 4.028-1.079zm23.017-6.168 3.242-5.616 1.187 4.43zm-25.536.63-3.243 5.617-1.186-4.43zm-1.24 9.163h4.172l6 6h-4.172z"/><path d="m29.447 37.1-10-5a1 1 0 0 0 -1.447.9v10a1 1 0 0 0 1.447.9l10-5a1 1 0 0 0 0-1.79zm-9.447 4.282v-6.764l6.764 3.382z"/><path d="m58 58a4 4 0 0 0 4-4 1 1 0 0 0 -2 0 2 2 0 0 1 -2 2h-22a2 2 0 0 1 -2-2v-10a1 1 0 0 0 -2 0v10a4 4 0 0 0 4 4h5v2h-7a1 1 0 0 0 0 2h26a1 1 0 0 0 0-2h-7v-2zm-7 2h-8v-2h8z"/><path d="m58 36h-2a2 2 0 0 1 -2-2 4 4 0 0 0 -4-4h-6a4 4 0 0 0 -4 4 2 2 0 0 1 -2 2h-2a4 4 0 0 0 -4 4 1 1 0 0 0 2 0 2 2 0 0 1 2-2h2a4 4 0 0 0 4-4 2 2 0 0 1 2-2h6a2 2 0 0 1 2 2 4 4 0 0 0 4 4h2a2 2 0 0 1 2 2v10a1 1 0 0 0 2 0v-10a4 4 0 0 0 -4-4z"/><path d="m40 47a7 7 0 1 0 7-7 7.008 7.008 0 0 0 -7 7zm7-5a5 5 0 1 1 -5 5 5.006 5.006 0 0 1 5-5z"/><path d="m47 50a3 3 0 1 0 -3-3 3 3 0 0 0 3 3zm0-4a1 1 0 1 1 -1 1 1 1 0 0 1 1-1z"/><path d="m49 36a1 1 0 0 0 0-2h-4a1 1 0 0 0 0 2z"/><circle cx="38" cy="53" r="1"/><path d="m48 22h6a3 3 0 0 0 2.737-1.785l3.02.755a1 1 0 0 0 1.243-.97v-6a1 1 0 0 0 -1.243-.97l-3.02.755a3 3 0 0 0 -2.737-1.785h-6a3 3 0 0 0 -3 3v4a3 3 0 0 0 3 3zm11-3.281-2-.5v-2.438l2-.5zm-12-3.719a1 1 0 0 1 1-1h6a1 1 0 0 1 1 1v4a1 1 0 0 1 -1 1h-6a1 1 0 0 1 -1-1z"/></g></g></svg>