<?xml version="1.0" encoding="iso-8859-1"?>
<!-- Generator: Adobe Illustrator 19.0.0, SVG Export Plug-In . SVG Version: 6.00 Build 0)  -->
<svg version="1.1" id="Capa_1" xmlns="http://www.w3.org/2000/svg" xmlns:xlink="http://www.w3.org/1999/xlink" x="0px" y="0px"
	 viewBox="0 0 481.28 481.28" style="enable-background:new 0 0 481.28 481.28;" xml:space="preserve">
<path style="fill:#D6EBB4;" d="M240.64,10.24H87.04c-28.16,0-51.2,23.04-51.2,51.2v358.4c0,28.16,23.04,51.2,51.2,51.2h153.6"/>
<path style="fill:#75E4DE;" d="M291.84,10.24h-153.6c-28.16,0-51.2,23.04-51.2,51.2v358.4c0,28.16,23.04,51.2,51.2,51.2h153.6"/>
<path style="fill:#F3E804;" d="M291.84,471.04h-102.4c-28.16,0-51.2-23.04-51.2-51.2V61.44c0-28.16,23.04-51.2,51.2-51.2h153.6
	l102.4,102.4v204.8h-102.4c-28.16,0-51.2,23.04-51.2,51.2V471.04"/>
<path style="fill:#F6AC0D;" d="M445.44,112.64h-51.2c-28.16,0-51.2-23.04-51.2-51.2v-51.2L445.44,112.64z"/>
<path d="M455.68,110.592L455.68,110.592c0-1.024-0.512-1.536-1.024-2.56c0,0,0-0.512-0.512-0.512
	c-0.512-1.024-1.024-1.536-1.536-2.048l-102.4-102.4c-0.512-0.512-1.536-1.024-2.048-1.536c0,0-0.512,0-0.512-0.512
	c-1.024-0.512-1.536-0.512-2.56-1.024l0,0c-0.512,0-1.536,0-2.048,0h-51.2h-51.2h-51.2h-51.2h-51.2C53.248,0,25.6,27.648,25.6,61.44
	v358.4c0,33.792,27.648,61.44,61.44,61.44h51.2h51.2h51.2h51.2c5.632,0,10.24-4.608,10.24-10.24v-102.4
	c0-22.528,18.432-40.96,40.96-40.96h102.4c5.632,0,10.24-4.608,10.24-10.24v-204.8C455.68,112.128,455.68,111.104,455.68,110.592z
	 M353.28,34.816l33.792,33.792l33.792,33.792H394.24c-22.528,0-40.96-18.432-40.96-40.96V34.816z M92.672,460.8H87.04
	c-22.528,0-40.96-18.432-40.96-40.96V61.44c0-22.528,18.432-40.96,40.96-40.96h5.632C82.944,31.232,76.8,45.568,76.8,61.44v358.4
	C76.8,435.712,82.944,450.048,92.672,460.8z M143.872,460.8h-5.632c-22.528,0-40.96-18.432-40.96-40.96V61.44
	c0-22.528,18.432-40.96,40.96-40.96h5.632C134.144,31.232,128,45.568,128,61.44v358.4C128,435.712,134.144,450.048,143.872,460.8z
	 M435.2,307.2h-92.16c-33.792,0-61.44,27.648-61.44,61.44v92.16h-40.96h-51.2c-22.528,0-40.96-18.432-40.96-40.96V61.44
	c0-22.528,18.432-40.96,40.96-40.96h51.2h51.2h40.96v40.96c0,33.792,27.648,61.44,61.44,61.44h40.96V307.2z"/>
<path d="M445.44,409.6h-40.96v-40.96c0-5.632-4.608-10.24-10.24-10.24S384,363.008,384,368.64v40.96h-40.96
	c-5.632,0-10.24,4.608-10.24,10.24s4.608,10.24,10.24,10.24H384v40.96c0,5.632,4.608,10.24,10.24,10.24s10.24-4.608,10.24-10.24
	v-40.96h40.96c5.632,0,10.24-4.608,10.24-10.24S451.072,409.6,445.44,409.6z"/>
<path d="M394.24,174.08h-204.8c-5.632,0-10.24-4.608-10.24-10.24s4.608-10.24,10.24-10.24h204.8c5.632,0,10.24,4.608,10.24,10.24
	S399.872,174.08,394.24,174.08z"/>
<path d="M394.24,225.28h-204.8c-5.632,0-10.24-4.608-10.24-10.24s4.608-10.24,10.24-10.24h204.8c5.632,0,10.24,4.608,10.24,10.24
	S399.872,225.28,394.24,225.28z"/>
<path d="M394.24,276.48h-204.8c-5.632,0-10.24-4.608-10.24-10.24S183.808,256,189.44,256h204.8c5.632,0,10.24,4.608,10.24,10.24
	S399.872,276.48,394.24,276.48z"/>
<path d="M291.84,71.68h-102.4c-5.632,0-10.24-4.608-10.24-10.24s4.608-10.24,10.24-10.24h102.4c5.632,0,10.24,4.608,10.24,10.24
	S297.472,71.68,291.84,71.68z"/>
<g>
</g>
<g>
</g>
<g>
</g>
<g>
</g>
<g>
</g>
<g>
</g>
<g>
</g>
<g>
</g>
<g>
</g>
<g>
</g>
<g>
</g>
<g>
</g>
<g>
</g>
<g>
</g>
<g>
</g>
</svg>
