<svg height="464pt" viewBox="0 0 464 464" width="464pt" xmlns="http://www.w3.org/2000/svg"><path d="m160 0c-88.398438 0-160 60.878906-160 136 .183594 28.257812 10.230469 55.5625 28.398438 77.199219l-28.398438 74.800781 78.960938-34.71875c21.734374 10.792969 45.445312 17.03125 69.679687 18.320312 3.757813.320313 7.519531.398438 11.359375.398438 75.28125 0 138.320312-44.160156 155.359375-103.601562 3.085937-10.523438 4.648437-21.433594 4.640625-32.398438 0-75.121094-71.601562-136-160-136zm25.839844 170.703125c-6.191406 8.074219-15.671875 12.953125-25.839844 13.296875-22.089844 0-40-25.070312-40-56s17.910156-56 40-56 40 25.070312 40 56c.363281 15.445312-4.640625 30.535156-14.160156 42.703125zm0 0" fill="#009698"/><path d="m185.839844 170.703125-17.839844-10.703125 17.839844 10.703125c9.519531-12.167969 14.523437-27.257813 14.160156-42.703125 0-30.929688-17.910156-56-40-56s-40 25.070312-40 56 17.910156 56 40 56c10.167969-.34375 19.648438-5.222656 25.839844-13.296875zm0 0" fill="#009698"/><path d="m464 304c0-71.839844-65.519531-130.71875-148.640625-135.601562-17.039063 59.441406-80.078125 103.601562-155.359375 103.601562-3.839844 0-7.601562-.078125-11.359375-.398438-3.085937 10.523438-4.648437 21.433594-4.640625 32.398438 0 75.121094 71.601562 136 160 136 25.769531.113281 51.265625-5.261719 74.800781-15.761719l85.199219 39.761719-33.121094-77.199219c21.050782-22.460937 32.871094-52.019531 33.121094-82.800781zm0 0" fill="#ffcd00"/><path d="m212.121094 177.144531-14.839844-8.90625c7.160156-12.1875 10.867188-26.101562 10.71875-40.238281 0-35.289062-21.527344-64-48-64s-48 28.710938-48 64 21.527344 64 48 64c10.121094-.171875 19.800781-4.171875 27.089844-11.199219l16.796875 10.070313c3.78125 2.179687 8.609375.929687 10.855469-2.808594 2.246093-3.738281 1.082031-8.589844-2.613282-10.902344zm-52.121094-1.144531c-17.34375 0-32-21.984375-32-48s14.65625-48 32-48 32 21.984375 32 48c.121094 11.230469-2.792969 22.285156-8.433594 32l-11.445312-6.863281c-3.78125-2.179688-8.609375-.929688-10.855469 2.808593-2.246094 3.738282-1.082031 8.589844 2.613281 10.902344l8.617188 5.167969c-3.679688 2.535156-8.027344 3.917969-12.496094 3.984375zm0 0" fill="#ffcd00"/><path d="m351.535156 373.3125-40-112c-1.132812-3.1875-4.152344-5.316406-7.535156-5.316406s-6.402344 2.128906-7.535156 5.316406l-40 112c-1.484375 4.160156.683594 8.738281 4.847656 10.222656 4.160156 1.484375 8.738281-.683594 10.222656-4.847656l12.394532-34.6875h40.140624l12.394532 34.6875c1.136718 3.1875 4.152344 5.3125 7.535156 5.3125 2.601562 0 5.039062-1.265625 6.539062-3.390625s1.871094-4.847656.996094-7.296875zm-61.894531-45.3125 14.359375-40.214844 14.398438 40.214844zm0 0" fill="#009698"/></svg>