<svg height="512pt" viewBox="-65 0 512 512.00075" width="512pt" xmlns="http://www.w3.org/2000/svg"><path d="m63.144531 181.039062-23.261719 154.425782h302.878907l-23.183594-154.425782" fill="#b0e7f8"/><path d="m117.890625 501.960938h-32.9375c-5.546875 0-10.039063-4.492188-10.039063-10.039063v-31.246094h53.015626v31.246094c0 5.546875-4.492188 10.039063-10.039063 10.039063zm0 0" fill="#8690a6"/><path d="m297.964844 501.960938h-32.941406c-5.542969 0-10.039063-4.492188-10.039063-10.039063v-31.246094h53.019531v31.246094c0 5.546875-4.496094 10.039063-10.039062 10.039063zm0 0" fill="#8690a6"/><path d="m125.929688 140.25h-22.152344c-22.441406 0-40.632813 18.191406-40.632813 40.628906v.160156h256.4375v-.160156c0-22.4375-18.191406-40.628906-40.628906-40.628906h-21.265625" fill="#ffcb7c"/><path d="m362.972656 299.777344h-25.566406l-11.40625-75.988282h36.976562c5.542969 0 10.039063 4.496094 10.039063 10.039063v55.910156c-.003906 5.542969-4.496094 10.039063-10.042969 10.039063zm0 0" fill="#fafafa"/><path d="m45.257812 299.777344h-25.042968c-5.542969 0-10.039063-4.496094-10.039063-10.039063v-55.910156c0-5.542969 4.496094-10.039063 10.039063-10.039063h36.492187zm0 0" fill="#fafafa"/><path d="m238.71875 26.878906c-27.25-22.351562-67.269531-22.351562-94.519531 0-25.652344 21.042969-36.667969 60.273438-27.105469 91.828125 11.535156 38.066407 44.675781 65.898438 74.363281 90.144531 28.835938-23.488281 60.734375-49.335937 73.132813-85.785156 11.003906-32.355468.839844-74.273437-25.871094-96.1875zm0 0" fill="#f5737f"/><path d="m231.238281 87.667969c0 21.96875-17.808593 39.777343-39.78125 39.777343-21.96875 0-39.777343-17.808593-39.777343-39.777343 0-21.972657 17.808593-39.78125 39.777343-39.78125 21.972657 0 39.78125 17.808593 39.78125 39.78125zm0 0" fill="#fafafa"/><path d="m148.476562 460.675781h-84.675781c-13.207031 0-23.914062-10.707031-23.914062-23.914062v-101.296875h302.878906v101.296875c0 13.207031-10.707031 23.914062-23.917969 23.914062zm0 0" fill="#ffcb7c"/><path d="m125.476562 398.113281c0 13.285157-10.769531 24.054688-24.054687 24.054688s-24.058594-10.769531-24.058594-24.054688c0-13.289062 10.773438-24.058593 24.058594-24.058593s24.054687 10.769531 24.054687 24.058593zm0 0" fill="#b0e7f8"/><path d="m305.550781 398.113281c0 13.285157-10.769531 24.054688-24.054687 24.054688s-24.058594-10.769531-24.058594-24.054688c0-13.289062 10.773438-24.058593 24.058594-24.058593s24.054687 10.769531 24.054687 24.058593zm0 0" fill="#b0e7f8"/><path d="m63.664062 450.636719c-7.652343 0-13.875-6.226563-13.875-13.875v-91.257813h282.800782v91.257813c0 7.648437-6.226563 13.875-13.878906 13.875h-88.550782c-12.890625 0-12.910156 20.078125 0 20.078125h14.652344v21.207031c0 11.070313 9.007812 20.078125 20.078125 20.078125h32.941406c11.070313 0 20.078125-9.007812 20.078125-20.078125v-21.207031h.800782c18.722656 0 33.957031-15.230469 33.957031-33.953125v-101.296875c0-2.359375-3.273438-25.648438-3.738281-25.648438h13.910156c11.070312 0 20.078125-9.007812 20.078125-20.078125v-55.910156c0-11.070313-9.007813-20.074219-20.078125-20.074219h-28.332032l-5.089843-33.898437c-.550781-27.464844-23.046875-49.644531-50.640625-49.644531h-6.242188c.496094-1.292969.972656-2.59375 1.421875-3.910157 12.644531-37.167969.171875-83.246093-29.007812-107.183593-31.074219-25.488282-76.179688-25.488282-107.253907 0-28.496093 23.378906-41.257812 66.484374-30.34375 102.5.882813 2.914062 1.90625 5.773437 3.035157 8.59375h-6.789063c-27.804687 0-50.441406 22.515624-50.65625 50.269531l-5.011718 33.273437h-27.851563c-11.070313 0-20.078125 9.003906-20.078125 20.074219v55.910156c0 11.070313 9.007812 20.078125 20.078125 20.078125h13.382813c-.535157 0-3.753907 23.347656-3.753907 25.648438v101.292968c0 18.722657 15.234375 33.957032 33.957031 33.957032h1.070313v21.207031c0 11.070313 9.007813 20.078125 20.078125 20.078125h32.941406c11.070313 0 20.078125-9.007812 20.078125-20.078125v-21.207031h10.507813c12.886718 0 12.90625-20.078125 0-20.078125zm54.097657 20.078125.007812 21.207031s-.003906 0-.011719 0h-32.941406v-21.207031zm180.082031 21.207031s-.003906 0-.015625 0h-32.9375v-21.207031h32.941406zm-19.066406-341.632813c13.410156 0 24.835937 8.675782 28.953125 20.710938h-60.597657c5.625-6.507812 10.835938-13.398438 15.355469-20.710938zm-128.347656-115.648437c11.847656-9.71875 26.371093-14.578125 40.890624-14.578125 14.523438 0 29.046876 4.859375 40.894532 14.578125 22.671875 18.597656 32.65625 56.019531 22.734375 85.191406-10.535157 30.972657-38.117188 54.917969-63.617188 76.003907-26.984375-22.476563-55.320312-48.875-64.765625-80.042969-8.519531-28.113281 1.738282-63.003907 23.863282-81.152344zm-46.828126 115.648437h17.097657c4.542969 7.222657 9.761719 14.117188 15.441406 20.710938h-61.492187c4.117187-12.035156 15.539062-20.710938 28.953124-20.710938zm-67.117187 139.449219h-16.40625v-55.90625h24.828125zm14.929687 35.691407 3.636719-24.152344v-.003906l8.132813-53.992188 8.464844-56.203125h83.855468c8.96875 8.449219 18.332032 16.382813 27.429688 23.875 5.773437 4.75 10.945312 4.8125 16.785156-.003906 8.878906-7.320313 18.464844-15.226563 27.804688-23.871094h83.277343l5.132813 34.199219v.003906l11.410156 75.988281 3.625 24.160157zm311.425782-35.691407h-16.925782l-8.394531-55.90625h25.320313l.011718 55.90625s-.003906 0-.011718 0zm0 0"/><path d="m191.324219 137.484375c27.46875 0 49.816406-22.347656 49.816406-49.816406 0-27.472657-22.347656-49.820313-49.816406-49.820313-27.472657 0-49.820313 22.347656-49.820313 49.820313 0 27.46875 22.347656 49.816406 49.820313 49.816406zm0-79.558594c16.398437 0 29.738281 13.339844 29.738281 29.742188 0 16.398437-13.339844 29.738281-29.738281 29.738281-16.398438 0-29.742188-13.339844-29.742188-29.738281 0-16.402344 13.339844-29.742188 29.742188-29.742188zm0 0"/><path d="m189.21875 244.371094c-3.917969-3.921875-10.277344-3.921875-14.195312 0l-39.324219 39.320312c-9.023438 9.023438 5.109375 23.285156 14.199219 14.199219l39.320312-39.324219c3.921875-3.917968 3.921875-10.277344 0-14.195312-3.921875-3.921875 3.921875 3.917968 0 0zm0 0"/><path d="m230.75 244.371094-39.320312 39.320312c-9.023438 9.023438 5.109374 23.285156 14.199218 14.199219l39.320313-39.324219c9.15625-9.15625-5.039063-23.351562-14.199219-14.195312zm0 0"/><path d="m67.191406 398.113281c0 18.800781 15.292969 34.09375 34.09375 34.09375 18.800782 0 34.097656-15.292969 34.097656-34.09375s-15.296874-34.097656-34.097656-34.097656c-18.800781 0-34.09375 15.296875-34.09375 34.097656zm48.113282 0c0 7.726563-6.289063 14.015625-14.019532 14.015625-7.726562 0-14.015625-6.289062-14.015625-14.015625 0-7.730469 6.289063-14.019531 14.015625-14.019531 7.730469 0 14.019532 6.289062 14.019532 14.019531zm0 0"/><path d="m281.359375 432.207031c18.800781 0 34.09375-15.292969 34.09375-34.09375s-15.292969-34.097656-34.09375-34.097656-34.097656 15.296875-34.097656 34.097656 15.296875 34.09375 34.097656 34.09375zm0-48.113281c7.726563 0 14.015625 6.289062 14.015625 14.019531 0 7.726563-6.289062 14.015625-14.015625 14.015625-7.730469 0-14.019531-6.289062-14.019531-14.015625 0-7.730469 6.289062-14.019531 14.019531-14.019531zm0 0"/><path d="m158.128906 371.441406c-5.546875 0-10.039062 4.496094-10.039062 10.039063v33.257812c0 12.890625 20.078125 12.910157 20.078125 0v-33.257812c0-5.542969-4.496094-10.039063-10.039063-10.039063zm0 0"/><path d="m191.507812 371.441406c-5.542968 0-10.039062 4.496094-10.039062 10.039063v33.257812c0 12.890625 20.078125 12.910157 20.078125 0v-33.257812c0-5.542969-4.496094-10.039063-10.039063-10.039063zm0 0"/><path d="m234.925781 414.738281v-33.257812c0-12.886719-20.078125-12.90625-20.078125 0v33.257812c0 12.890625 20.078125 12.910157 20.078125 0zm0 0"/><path d="m188.996094 450.113281c-5.460938 0-10.039063 4.574219-10.039063 10.039063.003907 5.453125 4.585938 10.039062 10.039063 10.039062 5.300781 0 9.785156-4.320312 10.019531-9.601562.25-5.625-4.378906-10.476563-10.019531-10.476563zm0 0"/></svg>