<?xml version="1.0" encoding="iso-8859-1"?>
<!-- Generator: Adobe Illustrator 19.0.0, SVG Export Plug-In . SVG Version: 6.00 Build 0)  -->
<svg version="1.1" id="Capa_1" xmlns="http://www.w3.org/2000/svg" xmlns:xlink="http://www.w3.org/1999/xlink" x="0px" y="0px"
	 viewBox="0 0 512 512" style="enable-background:new 0 0 512 512;" xml:space="preserve">
<g>
	<path style="fill:#A2DAF9;" d="M90.5,209.499c0-91.127,73.873-165,165-165s165,73.873,165,165s-73.873,165-165,165
		S90.5,300.626,90.5,209.499L90.5,209.499z M382.86,55.374C348.341,27.02,304.158,9.998,256,9.998c-110.457,0-200,89.543-200,200
		v0.022V482c0,11,9,20,20,20h360c11,0,20-9,20-20V209.998c0-48.158-17.021-92.341-45.376-126.86
		C402.299,73.002,392.996,63.699,382.86,55.374z"/>
	<path style="fill:#EDF2FA;" d="M255.5,44.499c-91.127,0-165,73.873-165,165s73.873,165,165,165s165-73.873,165-165
		S346.627,44.499,255.5,44.499L255.5,44.499z M181.667,193H240v-87.13c0-7.763,5.37-14.706,13.003-16.114
		C263.105,87.894,272,95.698,272,105.48V193h17.387c7.763,0,14.706,5.369,16.113,13.003c1.863,10.101-5.941,18.997-15.724,18.997
		H272v17.714c0,7.762-5.37,14.706-13.003,16.114C248.895,260.69,240,252.885,240,243.103V225h-58.723
		c-9.783,0-17.586-8.895-15.724-18.997C166.961,198.369,173.904,193,181.667,193z"/>
	<path style="fill:#1D80FF;" d="M253.003,90.254C245.369,91.662,240,98.605,240,106.368v87.131v32v17.714
		c0,7.763,5.37,14.706,13.003,16.113c10.102,1.863,18.997-5.942,18.997-15.723v-18.104v-32v-87.521
		C272,96.196,263.105,88.392,253.003,90.254z"/>
	<g>
		<path style="fill:#FF5D5D;" d="M240,193h-58.332c-7.762,0-14.706,5.369-16.113,13.003c-1.864,10.101,5.94,18.997,15.723,18.997
			H240V193z"/>
		<path style="fill:#FF5D5D;" d="M272,193v32h17.387c7.763,0,14.706-5.37,16.113-13.004c1.862-10.101-5.941-18.996-15.724-18.996
			H272z"/>
	</g>
	<path style="fill:#72D8FF;" d="M382.36,54.874c10.136,8.325,19.439,17.628,27.76,27.768l22.346-22.346
		c4.059-4.059,4.059-10.7,0-14.758l-13.005-13.005c-4.059-4.059-10.7-4.059-14.759,0L382.36,54.874z"/>
</g>
<path d="M407.053,121.999c-0.163-0.283-0.34-0.554-0.527-0.815c-15.186-25.869-36.823-47.509-62.689-62.699
	c-0.268-0.192-0.546-0.373-0.837-0.542c-0.214-0.124-0.434-0.228-0.653-0.334C316.74,42.91,287.084,34.498,255.5,34.498
	c-31.586,0-61.243,8.413-86.851,23.114c-0.217,0.105-0.436,0.209-0.648,0.332c-0.29,0.167-0.568,0.348-0.834,0.539
	c-25.858,15.184-47.49,36.814-62.676,62.671c-0.193,0.269-0.376,0.549-0.545,0.842c-0.125,0.216-0.231,0.438-0.338,0.66
	c-14.697,25.606-23.109,55.259-23.109,86.841c0,31.586,8.414,61.243,23.114,86.852c0.106,0.217,0.209,0.436,0.332,0.648
	c0.117,0.203,0.258,0.384,0.387,0.576c15.193,25.975,36.884,47.701,62.831,62.937c0.267,0.192,0.545,0.373,0.836,0.541
	c0.15,0.087,0.307,0.148,0.46,0.226c25.651,14.767,55.377,23.22,87.04,23.22s61.39-8.453,87.041-23.22
	c0.153-0.078,0.31-0.14,0.46-0.226c0.291-0.168,0.569-0.349,0.836-0.541c25.95-15.238,47.644-36.967,62.837-62.947
	c0.127-0.189,0.264-0.366,0.38-0.566c0.119-0.206,0.22-0.418,0.322-0.63c14.125-24.599,22.441-52.938,23.077-83.132
	c0.348-1.017,0.547-2.103,0.547-3.239c0-1.121-0.193-2.196-0.533-3.202c-0.466-30.583-8.805-59.292-23.093-84.173
	C407.27,122.414,407.171,122.204,407.053,121.999z M341.471,338.406l-1.927-3.337c-2.762-4.783-8.878-6.422-13.661-3.66
	c-4.782,2.762-6.421,8.878-3.659,13.661l1.941,3.361c-17.743,8.805-37.399,14.308-58.165,15.704v-4.136c0-5.523-4.478-10-10-10
	c-5.522,0-10,4.477-10,10v4.199c-21.135-1.285-41.138-6.822-59.166-15.768l1.94-3.361c2.762-4.783,1.123-10.899-3.66-13.66
	c-4.785-2.764-10.899-1.123-13.66,3.66l-1.926,3.336c-16.969-11.355-31.581-25.966-42.936-42.936l3.336-1.926
	c4.783-2.762,6.422-8.878,3.66-13.661c-2.761-4.782-8.877-6.422-13.66-3.66l-3.361,1.941c-8.946-18.027-14.483-38.03-15.768-59.164
	h4.2c5.522,0,10-4.477,10-10s-4.478-10-10-10h-4.137c1.396-20.767,6.899-40.424,15.705-58.167l3.361,1.941
	c1.574,0.909,3.294,1.342,4.99,1.342c3.456,0,6.817-1.794,8.67-5.001c2.762-4.783,1.123-10.899-3.66-13.661l-3.336-1.926
	c11.355-16.97,25.966-31.581,42.936-42.936l1.926,3.336c1.852,3.208,5.213,5.002,8.67,5.002c1.696,0,3.416-0.433,4.99-1.342
	c4.783-2.761,6.422-8.877,3.66-13.66l-1.94-3.361c18.028-8.946,38.03-14.483,59.165-15.768v4.201c0,5.523,4.478,10,10,10
	c5.523,0,10-4.477,10-10v-4.138c20.767,1.396,40.423,6.899,58.166,15.704l-1.94,3.361c-2.762,4.783-1.123,10.899,3.66,13.66
	c1.575,0.91,3.294,1.342,4.99,1.342c3.456,0,6.818-1.794,8.67-5.002l1.926-3.336c16.97,11.354,31.581,25.966,42.936,42.936
	l-3.337,1.926c-4.783,2.761-6.422,8.878-3.66,13.66c1.852,3.208,5.213,5.002,8.67,5.002c1.696,0,3.416-0.433,4.99-1.342l3.362-1.941
	c8.946,18.028,14.484,38.031,15.768,59.166h-4.201c-5.522,0-10,4.477-10,10s4.478,10,10,10h4.138
	c-1.396,20.767-6.899,40.423-15.705,58.166l-3.362-1.941c-4.785-2.763-10.9-1.123-13.66,3.66c-2.762,4.783-1.123,10.899,3.66,13.66
	l3.337,1.926C373.052,312.44,358.441,327.052,341.471,338.406z"/>
<path d="M289.777,182.999H282v-77.022c0-14.337-11.664-26-26.001-26c-14.337,0-26,11.663-26,26v77.022h-48.722
	c-14.337,0-26,11.664-26,26s11.663,26,26,26h48.722v8.604c0,14.337,11.663,26,26,26c14.337,0,26.001-11.663,26.001-26v-8.604h7.776
	c14.337,0,26-11.664,26-26C315.777,194.663,304.114,182.999,289.777,182.999z M181.278,214.999c-3.252,0-6-2.747-6-6
	c0-3.252,2.748-6,6-6H230v12H181.278z M262,243.603c0,3.252-2.748,6-6.001,6c-3.252,0-6-2.748-6-6v-18.604v-32v-87.022
	c0-3.252,2.748-6,6-6c3.253,0,6.001,2.748,6.001,6v87.022v32V243.603z M289.777,214.999H282v-12h7.776c3.252,0,6,2.748,6,6
	C295.777,212.252,293.029,214.999,289.777,214.999z"/>
<path d="M387.094,209.499c0-5.508-4.492-10-10-10s-10.001,4.492-10.001,10s4.493,10,10.001,10S387.094,215.007,387.094,209.499z"/>
<circle cx="255.5" cy="331.09" r="10"/>
<circle cx="133.91" cy="209.5" r="10"/>
<path d="M422.774,84.131l16.764-16.763c7.968-7.968,7.968-20.933,0-28.901l-13.006-13.005c-7.969-7.968-20.932-7.968-28.9,0
	l-16.774,16.774C345.644,15.52,303.504,0.719,259.38,0.025c-56.735-0.858-110.275,20.525-150.692,60.31
	C68.263,100.128,46,153.28,46,210.021V482c0,16.542,13.458,30,30,30h360c16.542,0,30-13.458,30-30V211.68
	C466,165.412,450.804,120.988,422.774,84.131z M411.774,39.603c0.152-0.152,0.463-0.152,0.615,0l13.006,13.005
	c0.028,0.028,0.115,0.115,0.115,0.308s-0.087,0.28-0.115,0.308l-15.502,15.501c-1.483-1.618-2.983-3.225-4.521-4.805
	c-2.96-3.044-6.001-5.974-9.101-8.816L411.774,39.603z M446,482c0,5.514-4.486,10-10,10H76c-5.514,0-10-4.486-10-10V209.998
	c0-51.317,20.143-99.406,56.718-135.41c35.834-35.275,83.049-54.59,133.261-54.59c1.025,0,2.059,0.008,3.087,0.024
	C362.142,21.645,446,107.622,446,211.68V482z"/>
<g>
</g>
<g>
</g>
<g>
</g>
<g>
</g>
<g>
</g>
<g>
</g>
<g>
</g>
<g>
</g>
<g>
</g>
<g>
</g>
<g>
</g>
<g>
</g>
<g>
</g>
<g>
</g>
<g>
</g>
</svg>
